<svg xmlns="http://www.w3.org/2000/svg" viewBox="0 0 1082 459"><defs><style>.cls-1{fill:#e0f0ee;}.cls-2{fill:#99cdc7;}.cls-3{fill:#66b4aa;}.cls-4{fill:#fff;}.cls-5{fill:#339b8e;}.cls-6{fill:#008272;}.cls-7{fill:#cce6e3;}.cls-8{fill:none;}.cls-9{opacity:0.8;}</style></defs><title>Asset 3</title><g id="Layer_2" data-name="Layer 2"><g id="Panels"><rect class="cls-1" width="1082" height="459"/><rect class="cls-1" x="471.25" y="228.4" width="459" height="2.2" transform="translate(930.25 -471.25) rotate(90)"/><rect class="cls-2" x="729.68" y="26.19" width="328.87" height="432.81"/><rect class="cls-3" x="355.58" y="69.63" width="275.47" height="389.37"/><rect class="cls-2" y="120.9" width="121.14" height="13.09"/><rect class="cls-2" y="153.62" width="121.14" height="13.09"/><rect class="cls-2" y="186.34" width="247.47" height="13.09"/><rect class="cls-2" y="219.07" width="213.44" height="13.09"/><rect class="cls-2" y="382.68" width="247.47" height="13.09"/><rect class="cls-2" y="415.4" width="213.72" height="13.09"/><rect class="cls-2" y="448.12" width="247.47" height="10.88"/><rect class="cls-2" y="251.79" width="247.47" height="13.09"/><rect class="cls-2" y="284.51" width="247.47" height="13.09"/><rect class="cls-2" y="317.23" width="155.38" height="13.09"/><rect class="cls-4" x="382.25" y="120.9" width="109.13" height="13.09"/><rect class="cls-4" x="382.25" y="153.62" width="109.13" height="13.09"/><rect class="cls-4" x="382.25" y="186.34" width="221.06" height="13.09"/><rect class="cls-4" x="382.25" y="251.79" width="221.06" height="13.09"/><rect class="cls-4" x="382.25" y="284.51" width="221.06" height="13.09"/><rect class="cls-4" x="382.25" y="317.23" width="138.8" height="13.09"/><rect class="cls-4" x="382.25" y="381.43" width="221.06" height="13.09"/><rect class="cls-4" x="382.25" y="414.15" width="221.06" height="13.09"/><rect class="cls-4" x="382.25" y="446.87" width="218.41" height="12.13"/><rect class="cls-4" x="755.86" y="199.43" width="23.26" height="23.26"/><rect class="cls-4" x="755.86" y="248.56" width="23.26" height="23.26"/><path class="cls-4" d="M1019.28,99.09V64.51H755.86V99.09h263.42ZM991.95,73l1.15-1.15,8.83,8.82,8.83-8.82,1.15,1.15-8.82,8.83,8.82,8.83-1.15,1.15L1001.93,83l-8.83,8.82-1.15-1.15,8.82-8.83ZM765.73,94h-2.18V69.63h2.18Z"/><path class="cls-4" d="M801.92,442.54v-34.9h49.5L884,365h-5.18V351.92H894l13-17H753.68v-2.18h155l12.89-16.86H878.83V302.79h52.76l13-17H753.68V283.6H946.26l12.89-16.86H878.83V253.65h90.33l13-17H753.68v-2.18H983.83l12.89-16.86H878.83V204.52h127.9L1052,145.3V21.83H723.14V459h89l12.59-16.46Zm-48.24-147h27.63v27.63H753.68Zm0-49.14h27.63V274H753.68Zm0-184.06h267.78v38.94H753.68Zm0,58.57h232.7V134H753.68Zm0,26.18H925.74v13.26H753.68Zm0,50.17h27.63v27.63H753.68Zm27.63,175H753.68V344.66h27.63Z"/><path class="cls-1" d="M1052,145.3l-45.27,59.21h14.73V217.6H996.72l-12.89,16.86h37.63v2.18h-39.3l-13,17h52.31v13.09H959.15L946.26,283.6h75.2v2.18H944.6l-13,17h89.88v13.09H921.58l-12.89,16.86h112.77v2.18H907l-13,17h127.45V365H884l-32.59,42.62h55.21v34.9h-81.9L812.14,459H1052Zm-30.61,297.23H916.68v-34.9h104.71Z"/><rect class="cls-1" x="763.55" y="69.63" width="2.18" height="24.34"/><path class="cls-5" d="M781.31,295.52H753.68v27.63h27.63Zm-16.56,20.41-6.35-6.36,1.34-1.34,5,5,10.5-10.48,1.34,1.34Z"/><polygon class="cls-4" points="764.75 313.22 759.74 308.23 758.4 309.57 764.75 315.93 776.58 304.08 775.24 302.74 764.75 313.22"/><path class="cls-2" d="M781.31,246.38H753.68V274h27.63Zm-2.18,25.44H755.86V248.56h23.26Z"/><path class="cls-2" d="M781.31,197.25H753.68v27.63h27.63Zm-2.18,25.44H755.86V199.43h23.26Z"/><path class="cls-2" d="M1021.46,101.27V62.33H753.68v38.94h267.78ZM755.86,64.51h263.42V99.09H755.86Z"/><polygon class="cls-3" points="1021.47 217.6 1021.47 204.51 1006.73 204.51 996.72 217.6 1021.47 217.6"/><polygon class="cls-2" points="878.83 217.6 996.72 217.6 1006.73 204.51 878.83 204.51 878.83 217.6"/><rect class="cls-1" x="753.68" y="120.9" width="232.7" height="13.09"/><rect class="cls-1" x="753.68" y="147.08" width="172.06" height="13.26"/><polygon class="cls-2" points="878.83 266.74 959.15 266.74 969.16 253.65 878.83 253.65 878.83 266.74"/><polygon class="cls-3" points="1021.47 266.74 1021.47 253.65 969.16 253.65 959.15 266.74 1021.47 266.74"/><polygon class="cls-3" points="1021.47 315.88 1021.47 302.79 931.59 302.79 921.58 315.88 1021.47 315.88"/><polygon class="cls-2" points="878.83 315.88 921.58 315.88 931.59 302.79 878.83 302.79 878.83 315.88"/><path class="cls-5" d="M753.68,372.28h27.63V344.66H753.68Zm6.06-14.92,5,5,10.5-10.48,1.34,1.34-11.84,11.85-6.35-6.36Z"/><polygon class="cls-4" points="776.58 353.22 775.24 351.88 764.75 362.36 759.74 357.36 758.4 358.7 764.75 365.06 776.58 353.22"/><polygon class="cls-3" points="1021.47 365.01 1021.47 351.92 894.02 351.92 884.01 365.01 1021.47 365.01"/><polygon class="cls-2" points="878.83 365.01 884.01 365.01 894.02 351.92 878.83 351.92 878.83 365.01"/><polygon class="cls-2" points="1021.47 236.64 1021.47 234.46 983.83 234.46 982.17 236.64 1021.47 236.64"/><polygon class="cls-1" points="753.68 236.64 982.17 236.64 983.83 234.46 753.68 234.46 753.68 236.64"/><polygon class="cls-1" points="753.68 285.78 944.6 285.78 946.26 283.6 753.68 283.6 753.68 285.78"/><polygon class="cls-2" points="1021.47 285.78 1021.47 283.6 946.26 283.6 944.6 285.78 1021.47 285.78"/><polygon class="cls-2" points="1021.47 334.91 1021.47 332.73 908.69 332.73 907.02 334.91 1021.47 334.91"/><polygon class="cls-1" points="753.68 334.91 907.02 334.91 908.69 332.73 753.68 332.73 753.68 334.91"/><polygon class="cls-5" points="993.1 91.78 1001.93 82.96 1010.76 91.78 1011.91 90.63 1003.09 81.8 1011.91 72.97 1010.76 71.81 1001.93 80.63 993.1 71.81 991.95 72.97 1000.77 81.8 991.95 90.63 993.1 91.78"/><polygon class="cls-6" points="880.45 420.69 880.45 429.48 834.71 429.48 824.73 442.54 906.63 442.54 906.63 407.63 851.42 407.63 841.43 420.69 880.45 420.69"/><polygon class="cls-5" points="801.92 442.54 824.73 442.54 834.71 429.48 828.09 429.48 828.09 420.69 841.43 420.69 851.42 407.63 801.92 407.63 801.92 442.54"/><path class="cls-2" d="M916.68,442.54h104.71v-34.9H916.68Zm26.18-21.85h52.35v8.79H942.86Z"/><polygon class="cls-4" points="828.09 420.69 828.09 429.48 834.71 429.48 841.43 420.69 828.09 420.69"/><polygon class="cls-1" points="880.45 420.69 841.43 420.69 834.71 429.48 880.45 429.48 880.45 420.69"/><rect class="cls-3" x="942.86" y="420.69" width="52.35" height="8.79"/><rect class="cls-2" x="78.62" y="30.83" width="246.4" height="309.84"/><path class="cls-4" d="M161,160.81a10.52,10.52,0,1,0,10.52,10.52A10.53,10.53,0,0,0,161,160.81Zm0,16.08a5.56,5.56,0,1,1,5.56-5.56A5.56,5.56,0,0,1,161,176.9Z"/><path class="cls-1" d="M316,100l-26.17,34.23a5.56,5.56,0,1,1-6.34,8.3l-21.57,28.21a5.63,5.63,0,0,1,0,.6,5.56,5.56,0,0,1-4.69,5.49l-64.48,84.32h0a5.56,5.56,0,1,1-5.37,7l-48.57,63.52H316ZM224.62,272.27a5.56,5.56,0,1,1,5.56-5.56A5.56,5.56,0,0,1,224.62,272.27Zm0-31.79a5.56,5.56,0,1,1,5.56-5.56A5.56,5.56,0,0,1,224.62,240.48Zm31.79,31.79a5.56,5.56,0,1,1,5.56-5.56A5.56,5.56,0,0,1,256.41,272.27Zm0-31.79a5.56,5.56,0,1,1,5.56-5.56A5.56,5.56,0,0,1,256.41,240.48Zm0-31.79a5.56,5.56,0,1,1,5.56-5.56A5.56,5.56,0,0,1,256.41,208.69Zm31.79,63.59a5.56,5.56,0,1,1,5.56-5.56A5.56,5.56,0,0,1,288.2,272.27Zm0-31.79a5.56,5.56,0,1,1,5.56-5.56A5.56,5.56,0,0,1,288.2,240.48Zm0-31.79a5.56,5.56,0,1,1,5.56-5.56A5.56,5.56,0,0,1,288.2,208.69Zm0-31.79a5.56,5.56,0,1,1,5.56-5.56A5.56,5.56,0,0,1,288.2,176.9Z"/><path class="cls-4" d="M187.26,266.71a5.56,5.56,0,0,1,5.55-5.56l64.48-84.32a5.56,5.56,0,1,1,4.66-6.09l21.57-28.21a5.56,5.56,0,0,1,6.34-8.3L316,100V21.83H69.62V331.67h69.26l48.57-63.52A5.56,5.56,0,0,1,187.26,266.71ZM283.71,53l1-1,8,8-8,8-1-1,7-7ZM192.82,240.48a5.56,5.56,0,1,1,5.56-5.56A5.56,5.56,0,0,1,192.82,240.48Zm0-31.79a5.56,5.56,0,1,1,5.56-5.56A5.56,5.56,0,0,1,192.82,208.69Zm0-31.79a5.56,5.56,0,1,1,5.56-5.56A5.56,5.56,0,0,1,192.82,176.9Zm31.79,31.79a5.56,5.56,0,1,1,5.56-5.56A5.56,5.56,0,0,1,224.62,208.69Zm0-31.79a5.56,5.56,0,1,1,5.56-5.56A5.56,5.56,0,0,1,224.62,176.9ZM148.75,52.06H236.9v16H148.75Zm-47.78,0,1,1-7,7,7,7-1,1-8-8Zm-3.52,252A5.56,5.56,0,1,1,103,298.5,5.56,5.56,0,0,1,97.45,304.07Zm0-31.79a5.56,5.56,0,1,1,5.56-5.56A5.56,5.56,0,0,1,97.45,272.27Zm0-31.79a5.56,5.56,0,1,1,5.56-5.56A5.56,5.56,0,0,1,97.45,240.48Zm0-31.79a5.56,5.56,0,1,1,5.56-5.56A5.56,5.56,0,0,1,97.45,208.69Zm0-31.79a5.56,5.56,0,1,1,5.56-5.56A5.56,5.56,0,0,1,97.45,176.9Zm31.79,127.17a5.56,5.56,0,1,1,5.56-5.56A5.56,5.56,0,0,1,129.24,304.07Zm0-31.79a5.56,5.56,0,1,1,5.56-5.56A5.56,5.56,0,0,1,129.24,272.27Zm0-31.79a5.56,5.56,0,1,1,5.56-5.56A5.56,5.56,0,0,1,129.24,240.48Zm0-31.79a5.56,5.56,0,1,1,5.56-5.56A5.56,5.56,0,0,1,129.24,208.69Zm0-31.79a5.56,5.56,0,1,1,5.56-5.56A5.56,5.56,0,0,1,129.24,176.9ZM161,272.27a5.56,5.56,0,1,1,5.56-5.56A5.56,5.56,0,0,1,161,272.27Zm0-31.79a5.56,5.56,0,1,1,5.56-5.56A5.56,5.56,0,0,1,161,240.48Zm0-31.79a5.56,5.56,0,1,1,5.56-5.56A5.56,5.56,0,0,1,161,208.69Zm0-23.84a13.52,13.52,0,1,1,13.52-13.52A13.53,13.53,0,0,1,161,184.85Z"/><rect class="cls-5" x="148.75" y="52.06" width="88.14" height="16"/><path class="cls-1" d="M282.64,139.54a5.53,5.53,0,0,0,.87,3l6.34-8.3a5.57,5.57,0,0,0-7.22,5.32Z"/><path class="cls-3" d="M288.2,145.1a5.57,5.57,0,0,0,1.65-10.88l-6.34,8.3A5.56,5.56,0,0,0,288.2,145.1Z"/><circle class="cls-7" cx="97.45" cy="171.33" r="5.56"/><circle class="cls-7" cx="129.24" cy="171.33" r="5.56"/><circle class="cls-5" cx="161.03" cy="171.33" r="5.56"/><circle class="cls-7" cx="192.82" cy="171.33" r="5.56"/><circle class="cls-7" cx="224.62" cy="171.33" r="5.56"/><path class="cls-7" d="M256.41,165.77a5.56,5.56,0,1,0,.87,11.05l4.66-6.09A5.56,5.56,0,0,0,256.41,165.77Z"/><path class="cls-3" d="M262,171.33a5.63,5.63,0,0,0,0-.6l-4.66,6.09A5.56,5.56,0,0,0,262,171.33Z"/><circle class="cls-3" cx="288.2" cy="171.33" r="5.56"/><circle class="cls-7" cx="97.45" cy="203.13" r="5.56"/><circle class="cls-7" cx="129.24" cy="203.13" r="5.56"/><circle class="cls-7" cx="161.03" cy="203.13" r="5.56"/><circle class="cls-7" cx="192.82" cy="203.13" r="5.56"/><circle class="cls-7" cx="224.62" cy="203.13" r="5.56"/><circle class="cls-3" cx="256.41" cy="203.13" r="5.56"/><circle class="cls-3" cx="288.2" cy="203.13" r="5.56"/><circle class="cls-7" cx="97.45" cy="234.92" r="5.56"/><circle class="cls-7" cx="129.24" cy="234.92" r="5.56"/><circle class="cls-7" cx="161.03" cy="234.92" r="5.56"/><circle class="cls-7" cx="192.82" cy="234.92" r="5.56"/><circle class="cls-3" cx="224.62" cy="234.92" r="5.56"/><circle class="cls-3" cx="256.41" cy="234.92" r="5.56"/><circle class="cls-3" cx="288.2" cy="234.92" r="5.56"/><circle class="cls-7" cx="97.45" cy="266.71" r="5.56"/><circle class="cls-7" cx="129.24" cy="266.71" r="5.56"/><circle class="cls-7" cx="161.03" cy="266.71" r="5.56"/><path class="cls-3" d="M192.82,272.27a5.56,5.56,0,0,0,0-11.13h0l-5.36,7A5.56,5.56,0,0,0,192.82,272.27Z"/><path class="cls-7" d="M187.26,266.71a5.56,5.56,0,0,0,.19,1.44l5.35-7A5.56,5.56,0,0,0,187.26,266.71Z"/><circle class="cls-3" cx="224.62" cy="266.71" r="5.56"/><circle class="cls-3" cx="256.41" cy="266.71" r="5.56"/><circle class="cls-3" cx="288.2" cy="266.71" r="5.56"/><circle class="cls-7" cx="97.45" cy="298.5" r="5.56"/><circle class="cls-7" cx="129.24" cy="298.5" r="5.56"/><path class="cls-5" d="M161,157.81a13.52,13.52,0,1,0,13.52,13.52A13.53,13.53,0,0,0,161,157.81Zm0,24a10.52,10.52,0,1,1,10.52-10.52A10.53,10.53,0,0,1,161,181.85Z"/><polygon class="cls-1" points="101.94 67.12 94.9 60.08 101.94 53.03 100.97 52.06 92.95 60.08 100.97 68.09 101.94 67.12"/><polygon class="cls-1" points="284.68 68.09 292.69 60.08 284.68 52.06 283.71 53.03 290.75 60.08 283.71 67.12 284.68 68.09"/><rect class="cls-2" x="443.44" y="177.15" width="328.84" height="259.11"/><path class="cls-4" d="M517,407V372.1h50.27l33.35-43.61h-28.8V315.23H610.8l29.8-39H571.86V263h78.89l29.34-38.37H571.86V211.36H690.22l29.5-38.57H436.9V431.89h84.7l19-24.89ZM486,198.36h37.08a19.63,19.63,0,1,1,0,39.27H486a19.63,19.63,0,0,1,0-39.27ZM486,250h37.08a19.63,19.63,0,1,1,0,39.27H486A19.63,19.63,0,0,1,486,250Zm-18.54,71.87A18.54,18.54,0,0,1,486,303.32h37.08a18.54,18.54,0,0,1,0,37.08H486A18.54,18.54,0,0,1,467.44,321.86Z"/><path class="cls-1" d="M765.73,172.78h-46l-29.5,38.57h45v13.26H680.09L650.75,263h84.45v13.26H640.61l-29.8,39H735.19v13.26H600.66L567.32,372.1h54.44V407H540.63l-19,24.89H765.73ZM735.19,407H630.48V372.1H735.19Z"/><path class="cls-4" d="M486,235.44h37.08a17.45,17.45,0,0,0,0-34.9H486a17.45,17.45,0,0,0,0,34.9Zm0-31.26A13.81,13.81,0,1,1,472.17,218,13.81,13.81,0,0,1,486,204.18Z"/><path class="cls-4" d="M486,287.07h37.08a17.45,17.45,0,0,0,0-34.9H486a17.45,17.45,0,0,0,0,34.9Zm0-31.26a13.81,13.81,0,1,1-13.81,13.81A13.81,13.81,0,0,1,486,255.81Z"/><circle class="cls-5" cx="485.98" cy="217.99" r="13.81"/><path class="cls-5" d="M486,237.62h37.08a19.63,19.63,0,1,0,0-39.27H486a19.63,19.63,0,0,0,0,39.27Zm0-37.08h37.08a17.45,17.45,0,0,1,0,34.9H486a17.45,17.45,0,0,1,0-34.9Z"/><circle class="cls-5" cx="485.98" cy="269.62" r="13.81"/><path class="cls-5" d="M486,289.25h37.08a19.63,19.63,0,1,0,0-39.27H486a19.63,19.63,0,0,0,0,39.27Zm0-37.08h37.08a17.45,17.45,0,0,1,0,34.9H486a17.45,17.45,0,0,1,0-34.9Z"/><path class="cls-5" d="M541.61,321.86a18.54,18.54,0,0,0-18.54-18.54H486a18.54,18.54,0,0,0,0,37.08h37.08A18.54,18.54,0,0,0,541.61,321.86Zm-32.36,0a13.81,13.81,0,1,1,13.81,13.81A13.81,13.81,0,0,1,509.25,321.86Z"/><circle class="cls-4" cx="523.06" cy="321.86" r="13.81"/><polygon class="cls-7" points="571.86 224.62 680.09 224.62 690.23 211.36 571.86 211.36 571.86 224.62"/><polygon class="cls-3" points="735.2 224.62 735.2 211.36 690.23 211.36 680.09 224.62 735.2 224.62"/><polygon class="cls-7" points="571.86 276.25 640.61 276.25 650.75 262.99 571.86 262.99 571.86 276.25"/><polygon class="cls-3" points="735.2 276.25 735.2 262.99 650.75 262.99 640.61 276.25 735.2 276.25"/><polygon class="cls-3" points="735.2 328.49 735.2 315.23 610.8 315.23 600.66 328.49 735.2 328.49"/><polygon class="cls-7" points="571.86 328.49 600.66 328.49 610.8 315.23 571.86 315.23 571.86 328.49"/><path class="cls-2" d="M630.48,407H735.19V372.1H630.48Zm26.18-21.85H709v8.79H656.66Z"/><rect class="cls-3" x="656.66" y="385.16" width="52.35" height="8.79"/><polygon class="cls-6" points="595.58 385.16 595.58 393.95 550.61 393.95 540.63 407 621.76 407 621.76 372.1 567.32 372.1 557.33 385.16 595.58 385.16"/><polygon class="cls-5" points="517.05 407 540.63 407 550.61 393.95 543.23 393.95 543.23 385.16 557.33 385.16 567.32 372.1 517.05 372.1 517.05 407"/><polygon class="cls-1" points="595.58 385.16 557.33 385.16 550.61 393.95 595.58 393.95 595.58 385.16"/><polygon class="cls-4" points="543.23 385.16 543.23 393.95 550.61 393.95 557.33 385.16 543.23 385.16"/><rect class="cls-8" width="1082" height="459"/><g class="cls-9"><rect class="cls-6" width="1082" height="459"/></g></g></g></svg>